<?xml version="1.0" encoding="UTF-8"?>
<svg xmlns="http://www.w3.org/2000/svg" xmlns:xlink="http://www.w3.org/1999/xlink" width="50px" height="0px" viewBox="0 0 192 192" version="1.1">
<g id="surface1">
<path style=" stroke:none;fill-rule:nonzero;fill:rgb(33.72549%,23.921569%,48.627451%);fill-opacity:1;" d="M 0 167.242188 C 0 180.917969 11.082031 192 24.757812 192 L 167.242188 192 C 180.917969 192 192 180.917969 192 167.242188 L 192 24.757812 C 192 11.082031 180.917969 0 167.242188 0 L 24.757812 0 C 11.082031 0 0 11.082031 0 24.757812 Z M 0 167.242188 "/>
<path style=" stroke:none;fill-rule:nonzero;fill:rgb(100%,100%,100%);fill-opacity:1;" d="M 79.617188 84.929688 L 79.617188 57.738281 L 103.550781 57.738281 C 105.832031 57.738281 108.03125 57.929688 110.144531 58.308594 C 112.261719 58.6875 114.136719 59.367188 115.761719 60.34375 C 117.390625 61.320312 118.695312 62.675781 119.671875 64.414062 C 120.648438 66.152344 121.136719 68.375 121.136719 71.089844 C 121.136719 75.972656 119.671875 79.5 116.738281 81.671875 C 113.808594 83.84375 110.066406 84.929688 105.503906 84.929688 Z M 54.054688 37.875 L 54.054688 154.125 L 110.390625 154.125 C 115.601562 154.125 120.675781 153.472656 125.613281 152.171875 C 130.550781 150.867188 134.949219 148.859375 138.800781 146.148438 C 142.65625 143.433594 145.722656 139.933594 148 135.644531 C 150.28125 131.359375 151.417969 126.285156 151.417969 120.421875 C 151.417969 113.148438 149.65625 106.9375 146.128906 101.78125 C 142.601562 96.625 137.253906 93.015625 130.089844 90.953125 C 135.300781 88.457031 139.234375 85.253906 141.894531 81.347656 C 144.554688 77.4375 145.882812 72.554688 145.882812 66.691406 C 145.882812 61.265625 144.988281 56.707031 143.199219 53.015625 C 141.40625 49.328125 138.882812 46.367188 135.625 44.144531 C 132.371094 41.917969 128.460938 40.316406 123.902344 39.339844 C 119.34375 38.363281 114.296875 37.875 108.761719 37.875 Z M 79.617188 134.261719 L 79.617188 102.351562 L 107.460938 102.351562 C 112.996094 102.351562 117.445312 103.625 120.808594 106.175781 C 124.175781 108.726562 125.859375 112.988281 125.859375 118.957031 C 125.859375 121.996094 125.34375 124.492188 124.3125 126.445312 C 123.28125 128.398438 121.894531 129.945312 120.160156 131.085938 C 118.421875 132.226562 116.414062 133.039062 114.136719 133.527344 C 111.855469 134.015625 109.46875 134.261719 106.972656 134.261719 Z M 79.617188 134.261719 "/>
</g>
</svg>
