<?xml version="1.0" encoding="UTF-8"?>
<svg xmlns="http://www.w3.org/2000/svg" xmlns:xlink="http://www.w3.org/1999/xlink" width="50px" height="0px" viewBox="0 0 192 192" version="1.1">
<g id="surface1">
<path style=" stroke:none;fill-rule:nonzero;fill:rgb(8.627451%,8.627451%,7.843137%);fill-opacity:1;" d="M 95.628906 2.625 C 42.820312 2.625 0 45.4375 0 98.253906 C 0 140.503906 27.402344 176.351562 65.398438 188.996094 C 70.175781 189.882812 71.929688 186.921875 71.929688 184.394531 C 71.929688 182.117188 71.839844 174.582031 71.800781 166.589844 C 45.195312 172.375 39.582031 155.308594 39.582031 155.308594 C 35.234375 144.253906 28.964844 141.316406 28.964844 141.316406 C 20.289062 135.382812 29.617188 135.503906 29.617188 135.503906 C 39.222656 136.175781 44.277344 145.359375 44.277344 145.359375 C 52.808594 159.976562 66.648438 155.75 72.105469 153.308594 C 72.964844 147.125 75.441406 142.90625 78.179688 140.519531 C 56.9375 138.101562 34.609375 129.902344 34.609375 93.257812 C 34.609375 82.820312 38.34375 74.289062 44.460938 67.589844 C 43.46875 65.183594 40.195312 55.457031 45.386719 42.285156 C 45.386719 42.285156 53.417969 39.714844 71.691406 52.085938 C 79.320312 49.96875 87.5 48.90625 95.628906 48.871094 C 103.753906 48.90625 111.941406 49.96875 119.585938 52.085938 C 137.839844 39.714844 145.855469 42.285156 145.855469 42.285156 C 151.0625 55.457031 147.789062 65.183594 146.792969 67.589844 C 152.925781 74.289062 156.636719 82.820312 156.636719 93.257812 C 156.636719 129.988281 134.265625 138.078125 112.972656 140.445312 C 116.402344 143.410156 119.457031 149.230469 119.457031 158.152344 C 119.457031 170.949219 119.347656 181.246094 119.347656 184.394531 C 119.347656 186.941406 121.066406 189.921875 125.914062 188.984375 C 163.890625 176.324219 191.257812 140.492188 191.257812 98.253906 C 191.257812 45.4375 148.441406 2.625 95.628906 2.625 "/>
<path style=" stroke:none;fill-rule:nonzero;fill:rgb(8.627451%,8.627451%,7.843137%);fill-opacity:1;" d="M 35.816406 138.851562 C 35.605469 139.324219 34.859375 139.46875 34.175781 139.140625 C 33.484375 138.832031 33.09375 138.183594 33.320312 137.707031 C 33.523438 137.214844 34.273438 137.078125 34.964844 137.410156 C 35.660156 137.71875 36.058594 138.375 35.816406 138.851562 M 40.519531 143.046875 C 40.0625 143.46875 39.171875 143.273438 38.566406 142.605469 C 37.941406 141.9375 37.824219 141.046875 38.289062 140.617188 C 38.757812 140.195312 39.621094 140.394531 40.25 141.0625 C 40.875 141.734375 40.996094 142.621094 40.519531 143.046875 M 43.746094 148.417969 C 43.160156 148.824219 42.203125 148.441406 41.609375 147.59375 C 41.023438 146.742188 41.023438 145.722656 41.625 145.3125 C 42.21875 144.90625 43.160156 145.273438 43.761719 146.117188 C 44.347656 146.980469 44.347656 148 43.746094 148.417969 M 49.203125 154.636719 C 48.679688 155.214844 47.5625 155.058594 46.746094 154.269531 C 45.910156 153.5 45.679688 152.40625 46.203125 151.828125 C 46.734375 151.25 47.855469 151.410156 48.679688 152.195312 C 49.511719 152.964844 49.765625 154.066406 49.207031 154.636719 M 56.257812 156.738281 C 56.027344 157.484375 54.953125 157.828125 53.867188 157.507812 C 52.789062 157.179688 52.078125 156.304688 52.296875 155.546875 C 52.523438 154.792969 53.601562 154.4375 54.695312 154.777344 C 55.773438 155.105469 56.484375 155.976562 56.257812 156.738281 M 64.285156 157.628906 C 64.3125 158.417969 63.394531 159.070312 62.257812 159.085938 C 61.113281 159.109375 60.1875 158.472656 60.175781 157.695312 C 60.175781 156.898438 61.074219 156.25 62.21875 156.234375 C 63.355469 156.210938 64.285156 156.84375 64.285156 157.628906 M 72.171875 157.324219 C 72.308594 158.09375 71.515625 158.886719 70.386719 159.09375 C 69.277344 159.296875 68.25 158.824219 68.109375 158.058594 C 67.972656 157.269531 68.777344 156.480469 69.882812 156.277344 C 71.015625 156.082031 72.027344 156.542969 72.171875 157.324219 "/>
</g>
</svg>
