<?xml version="1.0" encoding="UTF-8"?>
<svg xmlns="http://www.w3.org/2000/svg" xmlns:xlink="http://www.w3.org/1999/xlink" width="50px" height="0px" viewBox="0 0 384 384" version="1.1">
<g id="surface1">
<path style=" stroke:none;fill-rule:nonzero;fill:rgb(86.666667%,31.764706%,16.470588%);fill-opacity:1;" d="M 28.679688 0 C 25.148438 0 22.519531 2.875 22.832031 6.390625 L 52.585938 340.125 C 52.898438 343.640625 55.9375 347.289062 59.339844 348.234375 L 185.597656 383.292969 C 189 384.234375 194.5625 384.234375 197.964844 383.292969 L 324.609375 348.179688 C 328.011719 347.234375 331.050781 343.585938 331.363281 340.074219 L 361.167969 6.390625 C 361.484375 2.875 358.851562 0 355.320312 0 Z M 297.804688 76.539062 C 297.523438 79.675781 297.035156 85.117188 296.722656 88.632812 L 295.9375 97.390625 C 295.621094 100.902344 295.171875 105.929688 294.9375 108.558594 C 294.699219 111.183594 294.476562 113.335938 294.433594 113.335938 C 294.394531 113.335938 291.472656 113.335938 287.945312 113.335938 L 198.417969 113.335938 C 194.886719 113.335938 191.96875 113.335938 191.933594 113.335938 C 191.894531 113.335938 188.972656 113.335938 185.445312 113.335938 L 138.292969 113.335938 C 134.765625 113.335938 132.132812 116.210938 132.449219 119.726562 L 135.199219 150.46875 C 135.511719 153.984375 138.65625 156.859375 142.1875 156.859375 L 185.445312 156.859375 C 188.976562 156.859375 191.894531 156.859375 191.933594 156.859375 C 191.972656 156.859375 194.886719 156.859375 198.417969 156.859375 L 272.773438 156.859375 C 276.304688 156.859375 281.765625 156.859375 284.910156 156.859375 C 288.054688 156.859375 290.394531 159.425781 290.109375 162.558594 C 289.824219 165.695312 289.335938 171.140625 289.023438 174.652344 L 280.179688 273.765625 C 279.863281 277.28125 279.464844 281.773438 279.292969 283.746094 C 279.117188 285.71875 276.191406 288.105469 272.789062 289.046875 L 198.183594 309.734375 C 194.78125 310.675781 191.957031 311.457031 191.90625 311.46875 C 191.851562 311.480469 189.027344 310.714844 185.625 309.773438 L 110.9375 289.050781 C 107.539062 288.105469 104.5 284.457031 104.1875 280.941406 L 99.378906 226.984375 C 99.066406 223.46875 101.699219 220.59375 105.226562 220.59375 L 112.042969 220.59375 C 115.574219 220.59375 121.347656 220.59375 124.875 220.59375 L 135.039062 220.59375 C 138.570312 220.59375 141.710938 223.46875 142.027344 226.984375 L 143.914062 248.105469 C 144.226562 251.621094 147.269531 255.25 150.679688 256.171875 L 185.613281 265.605469 C 189.019531 266.523438 191.820312 267.277344 191.835938 267.277344 C 191.851562 267.277344 194.648438 266.523438 198.058594 265.601562 L 233.054688 256.144531 C 236.460938 255.226562 239.503906 251.597656 239.820312 248.082031 L 243.617188 205.761719 C 243.933594 202.246094 241.300781 199.371094 237.773438 199.371094 L 198.417969 199.371094 C 194.886719 199.371094 191.972656 199.371094 191.933594 199.371094 C 191.894531 199.371094 188.976562 199.371094 185.445312 199.371094 L 103.324219 199.371094 C 99.792969 199.371094 96.652344 196.492188 96.339844 192.980469 L 87.027344 88.636719 C 86.714844 85.121094 86.226562 79.679688 85.945312 76.542969 C 85.667969 73.40625 88.324219 70.839844 91.855469 70.839844 L 185.445312 70.839844 C 188.976562 70.839844 191.894531 70.839844 191.933594 70.839844 C 191.972656 70.839844 194.886719 70.839844 198.417969 70.839844 L 291.894531 70.839844 C 295.421875 70.839844 298.082031 73.40625 297.804688 76.539062 Z M 297.804688 76.539062 "/>
</g>
</svg>
