<?xml version="1.0" encoding="UTF-8"?>
<svg xmlns="http://www.w3.org/2000/svg" xmlns:xlink="http://www.w3.org/1999/xlink" width="50px" height="0px" viewBox="0 0 192 192" version="1.1">
<g id="surface1">
<path style=" stroke:none;fill-rule:nonzero;fill:rgb(0%,84.705882%,100%);fill-opacity:1;" d="M 157.863281 65.867188 C 155.871094 65.183594 153.808594 64.535156 151.683594 63.921875 C 152.03125 62.496094 152.351562 61.085938 152.636719 59.703125 C 157.316406 36.992188 154.257812 18.699219 143.808594 12.675781 C 133.792969 6.898438 117.414062 12.921875 100.871094 27.316406 C 99.277344 28.703125 97.683594 30.167969 96.089844 31.703125 C 95.027344 30.6875 93.964844 29.707031 92.90625 28.765625 C 75.570312 13.371094 58.191406 6.882812 47.753906 12.925781 C 37.746094 18.71875 34.785156 35.917969 38.996094 57.441406 C 39.402344 59.519531 39.878906 61.644531 40.414062 63.800781 C 37.957031 64.5 35.582031 65.242188 33.308594 66.035156 C 12.980469 73.121094 0 84.230469 0 95.75 C 0 107.648438 13.9375 119.585938 35.109375 126.820312 C 36.78125 127.394531 38.511719 127.933594 40.300781 128.445312 C 39.71875 130.78125 39.214844 133.066406 38.792969 135.296875 C 34.777344 156.449219 37.914062 173.242188 47.890625 179 C 58.199219 184.941406 75.5 178.832031 92.347656 164.105469 C 93.679688 162.941406 95.015625 161.707031 96.355469 160.414062 C 98.089844 162.085938 99.820312 163.667969 101.542969 165.148438 C 117.863281 179.191406 133.976562 184.863281 143.949219 179.089844 C 154.246094 173.128906 157.59375 155.085938 153.25 133.136719 C 152.917969 131.460938 152.53125 129.75 152.097656 128.007812 C 153.3125 127.648438 154.503906 127.277344 155.667969 126.890625 C 177.679688 119.597656 192 107.808594 192 95.75 C 192 84.1875 178.597656 73.007812 157.863281 65.867188 Z M 153.089844 119.105469 C 152.039062 119.453125 150.960938 119.789062 149.863281 120.113281 C 147.433594 112.421875 144.15625 104.242188 140.140625 95.789062 C 143.972656 87.539062 147.125 79.464844 149.484375 71.824219 C 151.449219 72.390625 153.355469 72.992188 155.191406 73.625 C 172.960938 79.738281 183.796875 88.78125 183.796875 95.75 C 183.796875 103.171875 172.09375 112.808594 153.089844 119.105469 Z M 145.203125 134.730469 C 147.125 144.4375 147.398438 153.210938 146.125 160.070312 C 144.980469 166.234375 142.683594 170.34375 139.839844 171.992188 C 133.789062 175.492188 120.847656 170.941406 106.894531 158.933594 C 105.292969 157.554688 103.683594 156.085938 102.066406 154.53125 C 107.476562 148.613281 112.882812 141.734375 118.160156 134.09375 C 127.441406 133.273438 136.210938 131.925781 144.164062 130.085938 C 144.554688 131.667969 144.902344 133.214844 145.203125 134.730469 Z M 65.457031 171.386719 C 59.546875 173.472656 54.835938 173.535156 51.992188 171.890625 C 45.933594 168.398438 43.417969 154.914062 46.851562 136.828125 C 47.246094 134.757812 47.710938 132.628906 48.253906 130.453125 C 56.117188 132.195312 64.824219 133.445312 74.125 134.199219 C 79.4375 141.675781 85.003906 148.546875 90.609375 154.5625 C 89.382812 155.746094 88.164062 156.871094 86.949219 157.929688 C 79.5 164.441406 72.035156 169.0625 65.457031 171.386719 Z M 37.761719 119.058594 C 28.398438 115.859375 20.667969 111.703125 15.367188 107.164062 C 10.605469 103.085938 8.203125 99.035156 8.203125 95.75 C 8.203125 88.757812 18.625 79.84375 36.007812 73.78125 C 38.117188 73.046875 40.328125 72.351562 42.617188 71.703125 C 45.019531 79.515625 48.171875 87.6875 51.976562 95.949219 C 48.125 104.335938 44.925781 112.636719 42.5 120.542969 C 40.867188 120.074219 39.285156 119.582031 37.761719 119.058594 Z M 47.046875 55.867188 C 43.4375 37.425781 45.832031 23.515625 51.863281 20.023438 C 58.285156 16.304688 72.492188 21.605469 87.460938 34.898438 C 88.417969 35.75 89.378906 36.636719 90.34375 37.558594 C 84.765625 43.546875 79.25 50.367188 73.984375 57.800781 C 64.957031 58.636719 56.3125 59.980469 48.363281 61.78125 C 47.867188 59.769531 47.421875 57.796875 47.046875 55.867188 Z M 129.867188 76.316406 C 127.964844 73.035156 126.015625 69.832031 124.027344 66.714844 C 130.152344 67.488281 136.023438 68.515625 141.535156 69.773438 C 139.878906 75.078125 137.816406 80.625 135.390625 86.308594 C 133.648438 83 131.804688 79.667969 129.867188 76.316406 Z M 96.089844 43.421875 C 99.875 47.519531 103.664062 52.09375 107.390625 57.058594 C 103.636719 56.882812 99.832031 56.789062 96 56.789062 C 92.203125 56.789062 88.429688 56.882812 84.699219 57.054688 C 88.425781 52.136719 92.25 47.566406 96.089844 43.421875 Z M 62.101562 76.371094 C 60.203125 79.664062 58.394531 82.980469 56.679688 86.300781 C 54.292969 80.636719 52.25 75.066406 50.582031 69.6875 C 56.058594 68.460938 61.898438 67.460938 67.988281 66.699219 C 65.972656 69.84375 64.003906 73.074219 62.101562 76.371094 Z M 68.164062 125.386719 C 61.875 124.683594 55.945312 123.734375 50.46875 122.542969 C 52.164062 117.066406 54.25 111.378906 56.691406 105.59375 C 58.410156 108.910156 60.222656 112.230469 62.132812 115.527344 C 64.078125 118.886719 66.09375 122.175781 68.164062 125.386719 Z M 96.320312 148.660156 C 92.429688 144.464844 88.554688 139.824219 84.765625 134.835938 C 88.441406 134.980469 92.191406 135.054688 96 135.054688 C 99.914062 135.054688 103.78125 134.964844 107.589844 134.796875 C 103.851562 139.875 100.074219 144.523438 96.320312 148.660156 Z M 135.46875 105.296875 C 138.035156 111.148438 140.195312 116.804688 141.914062 122.1875 C 136.347656 123.457031 130.335938 124.480469 124.003906 125.238281 C 125.996094 122.082031 127.964844 118.824219 129.898438 115.46875 C 131.855469 112.078125 133.710938 108.683594 135.46875 105.296875 Z M 122.792969 111.371094 C 119.792969 116.578125 116.710938 121.542969 113.582031 126.234375 C 107.886719 126.640625 102 126.851562 96 126.851562 C 90.023438 126.851562 84.214844 126.664062 78.617188 126.300781 C 75.363281 121.550781 72.214844 116.570312 69.230469 111.417969 L 69.234375 111.417969 C 66.257812 106.28125 63.519531 101.097656 61.039062 95.949219 C 63.519531 90.785156 66.25 85.597656 69.207031 80.46875 C 72.171875 75.328125 75.292969 70.371094 78.515625 65.648438 C 84.226562 65.21875 90.082031 64.992188 96 64.992188 C 101.945312 64.992188 107.808594 65.21875 113.515625 65.65625 C 116.691406 70.339844 119.789062 75.285156 122.765625 80.425781 C 125.777344 85.625 128.542969 90.777344 131.042969 95.832031 C 128.550781 100.972656 125.789062 106.175781 122.792969 111.371094 Z M 139.714844 19.78125 C 146.144531 23.488281 148.644531 38.441406 144.605469 58.050781 C 144.347656 59.300781 144.054688 60.574219 143.742188 61.867188 C 135.773438 60.027344 127.125 58.660156 118.070312 57.8125 C 112.792969 50.296875 107.328125 43.46875 101.839844 37.554688 C 103.3125 36.136719 104.789062 34.78125 106.253906 33.503906 C 120.429688 21.167969 133.675781 16.300781 139.714844 19.78125 Z M 96 78.605469 C 105.46875 78.605469 113.144531 86.28125 113.144531 95.75 C 113.144531 105.21875 105.46875 112.894531 96 112.894531 C 86.53125 112.894531 78.855469 105.21875 78.855469 95.75 C 78.855469 86.28125 86.53125 78.605469 96 78.605469 Z M 96 78.605469 "/>
</g>
</svg>
