<?xml version="1.0" encoding="UTF-8"?>
<svg xmlns="http://www.w3.org/2000/svg" xmlns:xlink="http://www.w3.org/1999/xlink" width="50px" height="0px" viewBox="0 0 192 192" version="1.1">
<g id="surface1">
<path style=" stroke:none;fill-rule:nonzero;fill:rgb(80.392157%,40.392157%,60%);fill-opacity:1;" d="M 165.210938 106.886719 C 158.53125 106.921875 152.726562 108.527344 147.863281 110.90625 C 146.082031 107.375 144.296875 104.226562 143.984375 101.917969 C 143.632812 99.226562 143.214844 97.582031 143.632812 94.363281 C 144.050781 91.148438 145.941406 86.566406 145.90625 86.214844 C 145.871094 85.867188 145.488281 84.222656 141.640625 84.1875 C 137.792969 84.152344 134.46875 84.921875 134.085938 85.9375 C 133.699219 86.949219 132.964844 89.257812 132.476562 91.636719 C 131.8125 95.132812 124.78125 107.621094 120.761719 114.160156 C 119.464844 111.605469 118.347656 109.367188 118.101562 107.585938 C 117.753906 104.890625 117.332031 103.25 117.753906 100.03125 C 118.171875 96.8125 120.0625 92.230469 120.027344 91.882812 C 119.992188 91.53125 119.605469 89.886719 115.757812 89.855469 C 111.914062 89.820312 108.589844 90.589844 108.207031 91.601562 C 107.820312 92.617188 107.402344 94.996094 106.597656 97.300781 C 105.792969 99.609375 96.453125 120.453125 94.007812 125.839844 C 92.746094 128.601562 91.664062 130.804688 90.894531 132.308594 C 90.894531 132.308594 90.859375 132.414062 90.753906 132.589844 C 90.089844 133.882812 89.703125 134.582031 89.703125 134.582031 C 89.703125 134.582031 89.703125 134.582031 89.703125 134.617188 C 89.179688 135.5625 88.621094 136.4375 88.339844 136.4375 C 88.132812 136.4375 87.746094 133.917969 88.410156 130.492188 C 89.808594 123.253906 93.132812 111.992188 93.097656 111.605469 C 93.097656 111.398438 93.726562 109.4375 90.929688 108.425781 C 88.199219 107.410156 87.222656 109.089844 86.976562 109.089844 C 86.730469 109.089844 86.558594 109.683594 86.558594 109.683594 C 86.558594 109.683594 89.601562 97.023438 80.75 97.023438 C 75.226562 97.023438 67.601562 103.074219 63.824219 108.527344 C 61.445312 109.824219 56.375 112.585938 50.957031 115.558594 C 48.890625 116.710938 46.757812 117.867188 44.765625 118.949219 C 44.625 118.8125 44.484375 118.636719 44.34375 118.496094 C 33.644531 107.058594 13.847656 98.980469 14.6875 83.628906 C 15.003906 78.03125 16.925781 63.34375 52.703125 45.507812 C 82.152344 30.996094 105.582031 35.015625 109.640625 43.933594 C 115.445312 56.664062 97.085938 80.304688 66.65625 83.734375 C 55.046875 85.027344 48.960938 80.550781 47.421875 78.871094 C 45.8125 77.125 45.570312 77.019531 44.976562 77.367188 C 43.996094 77.894531 44.625 79.464844 44.976562 80.375 C 45.882812 82.753906 49.625 86.949219 55.957031 89.015625 C 61.550781 90.832031 75.15625 91.847656 91.628906 85.480469 C 110.058594 78.347656 124.46875 58.519531 120.234375 41.90625 C 116.003906 25.050781 88.027344 19.488281 61.550781 28.894531 C 45.8125 34.492188 28.746094 43.304688 16.472656 54.777344 C 1.886719 68.414062 -0.417969 80.269531 0.523438 85.238281 C 3.917969 102.863281 28.222656 114.335938 37.945312 122.832031 C 37.457031 123.113281 37 123.355469 36.617188 123.566406 C 31.753906 125.980469 13.21875 135.667969 8.601562 145.914062 C 3.355469 157.527344 9.441406 165.847656 13.464844 166.96875 C 25.949219 170.429688 38.785156 164.207031 45.675781 153.921875 C 52.5625 143.640625 51.722656 130.28125 48.542969 124.160156 C 48.507812 124.09375 48.472656 124.023438 48.402344 123.953125 C 49.660156 123.21875 50.957031 122.449219 52.214844 121.714844 C 54.699219 120.246094 57.144531 118.882812 59.242188 117.761719 C 58.054688 121.015625 57.179688 124.894531 56.761719 130.492188 C 56.234375 137.066406 58.929688 145.601562 62.460938 148.957031 C 64.035156 150.425781 65.886719 150.460938 67.078125 150.460938 C 71.203125 150.460938 73.058594 147.035156 75.121094 142.976562 C 77.640625 138.011719 79.914062 132.242188 79.914062 132.242188 C 79.914062 132.242188 77.078125 147.839844 84.773438 147.839844 C 87.570312 147.839844 90.40625 144.199219 91.664062 142.347656 L 91.664062 142.382812 C 91.664062 142.382812 91.734375 142.277344 91.875 142.03125 C 92.152344 141.578125 92.328125 141.296875 92.328125 141.296875 L 92.328125 141.226562 C 93.445312 139.269531 95.964844 134.828125 99.707031 127.449219 C 104.535156 117.9375 109.183594 106.046875 109.183594 106.046875 C 109.183594 106.046875 109.605469 108.949219 111.039062 113.773438 C 111.878906 116.609375 113.625 119.71875 115.023438 122.726562 C 113.90625 124.300781 113.207031 125.175781 113.207031 125.175781 C 113.207031 125.175781 113.207031 125.175781 113.242188 125.210938 C 112.332031 126.398438 111.351562 127.695312 110.269531 128.953125 C 106.457031 133.5 101.910156 138.710938 101.28125 140.214844 C 100.546875 141.996094 100.722656 143.292969 102.121094 144.339844 C 103.132812 145.109375 104.953125 145.214844 106.804688 145.109375 C 110.234375 144.867188 112.648438 144.027344 113.835938 143.5 C 115.691406 142.835938 117.859375 141.824219 119.886719 140.320312 C 123.628906 137.554688 125.902344 133.605469 125.691406 128.394531 C 125.585938 125.527344 124.644531 122.65625 123.488281 119.964844 C 123.839844 119.476562 124.152344 118.984375 124.503906 118.496094 C 130.414062 109.859375 134.996094 100.378906 134.996094 100.378906 C 134.996094 100.378906 135.414062 103.28125 136.847656 108.109375 C 137.546875 110.558594 138.980469 113.214844 140.242188 115.804688 C 134.679688 120.316406 131.253906 125.5625 130.027344 128.988281 C 127.824219 135.351562 129.539062 138.222656 132.792969 138.886719 C 134.261719 139.199219 136.359375 138.5 137.898438 137.835938 C 139.855469 137.207031 142.164062 136.121094 144.367188 134.511719 C 148.109375 131.75 151.710938 127.902344 151.5 122.691406 C 151.398438 120.316406 150.765625 117.972656 149.894531 115.699219 C 154.613281 113.738281 160.699219 112.65625 168.464844 113.566406 C 185.109375 115.523438 188.398438 125.910156 187.769531 130.28125 C 187.140625 134.652344 183.640625 137.03125 182.488281 137.765625 C 181.332031 138.5 180.949219 138.746094 181.054688 139.269531 C 181.195312 140.039062 181.753906 140.003906 182.730469 139.863281 C 184.097656 139.621094 191.476562 136.332031 191.789062 128.289062 C 192.316406 118.007812 182.523438 106.78125 165.210938 106.886719 Z M 36.792969 150.179688 C 31.265625 156.195312 23.570312 158.46875 20.25 156.546875 C 16.683594 154.484375 18.082031 145.601562 24.867188 139.234375 C 28.992188 135.351562 34.308594 131.75 37.839844 129.546875 C 38.644531 129.058594 39.832031 128.359375 41.269531 127.484375 C 41.511719 127.34375 41.652344 127.273438 41.652344 127.273438 C 41.933594 127.097656 42.210938 126.925781 42.492188 126.75 C 44.976562 135.84375 42.597656 143.851562 36.792969 150.179688 Z M 77.011719 122.832031 C 75.085938 127.519531 71.066406 139.515625 68.617188 138.851562 C 66.519531 138.289062 65.222656 129.199219 68.195312 120.210938 C 69.699219 115.699219 72.882812 110.3125 74.738281 108.214844 C 77.746094 104.855469 81.066406 103.738281 81.871094 105.101562 C 82.886719 106.886719 78.199219 119.894531 77.011719 122.832031 Z M 110.199219 138.710938 C 109.394531 139.128906 108.625 139.410156 108.277344 139.199219 C 108.03125 139.058594 108.625 138.5 108.625 138.5 C 108.625 138.5 112.785156 134.023438 114.429688 131.996094 C 115.375 130.804688 116.492188 129.40625 117.683594 127.832031 L 117.683594 128.289062 C 117.683594 133.640625 112.507812 137.242188 110.199219 138.710938 Z M 135.800781 132.871094 C 135.203125 132.449219 135.308594 131.050781 137.300781 126.679688 C 138.070312 124.964844 139.890625 122.097656 143.003906 119.335938 C 143.351562 120.453125 143.597656 121.539062 143.5625 122.554688 C 143.527344 129.300781 138.703125 131.820312 135.800781 132.871094 Z M 135.800781 132.871094 "/>
</g>
</svg>
